<?xml version="1.0" encoding="utf-8"?>
<!-- Generator: Adobe Illustrator 25.0.1, SVG Export Plug-In . SVG Version: 6.00 Build 0)  -->
<svg version="1.1" id="Layer_1" xmlns="http://www.w3.org/2000/svg" xmlns:xlink="http://www.w3.org/1999/xlink" x="0px" y="0px"
	 viewBox="0 0 116.2 116.2" style="enable-background:new 0 0 116.2 116.2;" xml:space="preserve">
<style type="text/css">
	.st0{fill:#F5F5F5;}
	.st1{fill:#FFFFFF;}
	.st2{fill:#212121;stroke:#FFFFFF;stroke-width:0.5;}
	.st3{fill:#212121;stroke:#FFFFFF;}
	.st4{fill:#06F706;}
</style>
<g id="Group_6477" transform="translate(-122 -2902)">
	<g id="Group_6476">
		<path id="Path_5858" class="st0" d="M196.7,2938.1l41.4,13l-67.1,67.1l-49.1-49.1L196.7,2938.1z"/>
		<g id="Group_6470" transform="translate(72 2654)">
			<path id="Path_5804" class="st1" d="M127,322.5H78c-1.5,0-2.7-1.2-2.7-2.7l0,0V259c0-1.5,1.2-2.7,2.7-2.7l0,0H127
				c1.5,0,2.7,1.2,2.7,2.7v60.8C129.7,321.3,128.5,322.5,127,322.5C127,322.5,127,322.5,127,322.5z"/>
			<path id="Path_6635" class="st1" d="M127,322.5H78c-1.5,0-2.7-1.2-2.7-2.7l0,0V259c0-1.5,1.2-2.7,2.7-2.7l0,0H127
				c1.5,0,2.7,1.2,2.7,2.7v60.8C129.7,321.3,128.5,322.5,127,322.5C127,322.5,127,322.5,127,322.5z"/>
			<path id="Path_5807" class="st1" d="M132.7,276.6l0.8-1.3c1.2-2.1,3.8-2.8,5.9-1.6c0,0,0,0,0,0c2.1,1.2,2.8,3.8,1.6,5.9
				c0,0,0,0,0,0L124,308.9l-7.5-4.3l7.3-12.6L132.7,276.6z"/>
			<path id="Path_5808" class="st1" d="M139.3,273.7c-2.1-1.2-4.7-0.5-5.9,1.6c0,0,0,0,0,0l-2,3.5l7.5,4.3l2-3.5L139.3,273.7z"/>
			<path id="Path_5809" class="st1" d="M124,308.9l-8.6,6.4l1.2-10.7L124,308.9z"/>
			<path id="Path_5810" class="st2" d="M129.7,308.6c-0.7,0-1.3,0.6-1.3,1.3c0,0,0,0,0,0v9.9c0,0.7-0.6,1.3-1.3,1.3H78
				c-0.7,0-1.3-0.6-1.3-1.3V259c0-0.7,0.6-1.3,1.3-1.3H127c0.7,0,1.3,0.6,1.3,1.3v14.6c0,0.7,0.6,1.3,1.3,1.3s1.3-0.6,1.3-1.3l0,0
				V259c0-2.2-1.8-4-4-4H78c-2.2,0-4,1.8-4,4v60.8c0,2.2,1.8,4,4,4H127c2.2,0,4-1.8,4-4v-9.9C131,309.2,130.4,308.6,129.7,308.6
				C129.7,308.6,129.7,308.6,129.7,308.6z"/>
			<path id="Path_5812" class="st3" d="M109.8,313.9h-7.3c-0.7,0-1.3,0.6-1.3,1.3c0,0.7,0.6,1.3,1.3,1.3l0,0h7.3
				c0.7,0,1.3-0.6,1.3-1.3C111.1,314.5,110.5,313.9,109.8,313.9z"/>
			<path id="Path_5813" class="st3" d="M109.8,306.4H90.7c-0.7,0-1.3,0.6-1.3,1.3s0.6,1.3,1.3,1.3h19.1c0.7,0,1.3-0.6,1.3-1.3
				S110.5,306.4,109.8,306.4z"/>
			<path id="Path_5814" class="st3" d="M109.8,298.8H90.7c-0.7,0-1.3,0.6-1.3,1.3c0,0.7,0.6,1.3,1.3,1.3h19.1c0.7,0,1.3-0.6,1.3-1.3
				C111.1,299.4,110.5,298.8,109.8,298.8z"/>
			<path id="Path_5815" class="st3" d="M85.9,291.7c-0.5-0.5-1.4-0.5-1.9,0c-0.5,0.5-0.5,1.4,0,1.9c0.5,0.5,1.4,0.5,1.9,0
				c0.3-0.3,0.4-0.6,0.4-0.9C86.3,292.3,86.1,291.9,85.9,291.7z"/>
			<path id="Path_5816" class="st3" d="M85.9,299.2c-0.5-0.5-1.4-0.5-1.9,0c-0.5,0.5-0.5,1.4,0,1.9c0.5,0.5,1.4,0.5,1.9,0
				c0.3-0.3,0.4-0.6,0.4-0.9C86.3,299.8,86.1,299.5,85.9,299.2z"/>
			<path id="Path_5817" class="st3" d="M84.9,306.4c-0.7,0-1.3,0.6-1.3,1.3c0,0.7,0.6,1.3,1.3,1.3s1.3-0.6,1.3-1.3
				c0-0.4-0.1-0.7-0.4-1C85.6,306.5,85.3,306.4,84.9,306.4z"/>
			<path id="Path_5818" class="st3" d="M109.8,291.3H90.7c-0.7,0-1.3,0.6-1.3,1.3c0,0.7,0.6,1.3,1.3,1.3h19.1c0.7,0,1.3-0.6,1.3-1.3
				C111.1,291.9,110.5,291.3,109.8,291.3z"/>
			<path id="Path_5819" class="st2" d="M140,272.5c-2.7-1.6-6.2-0.6-7.7,2.1c0,0,0,0,0,0l-16.9,29.3c-0.1,0.2-0.2,0.3-0.2,0.5
				l-1.2,10.7c-0.1,0.7,0.4,1.4,1.2,1.5c0.3,0,0.7-0.1,0.9-0.3l8.6-6.4c0.1-0.1,0.3-0.2,0.4-0.4l16.9-29.3
				C143.6,277.5,142.7,274.1,140,272.5L140,272.5z M117.6,306.8l3.9,2.2l-4.5,3.3L117.6,306.8z M123.5,307l-5.1-3l13.6-23.5l5.1,3
				L123.5,307z M139.7,278.9l-1.3,2.3l-5.1-3l1.3-2.3c0.8-1.4,2.6-1.9,4.1-1C140.1,275.7,140.5,277.5,139.7,278.9L139.7,278.9z"/>
			<g id="Group_6334" transform="translate(93.235 262.756)">
				<path id="Subtraction_54" d="M2.2,24.8H0v-2.2c0-4.9,4-8.9,8.9-8.9c2.4,0,4.6,0.9,6.3,2.6c1.7,1.7,2.6,3.9,2.6,6.3v2.2h-2.2
					v-2.2c0-3.7-3.1-6.6-6.8-6.6c-3.6,0-6.5,3-6.6,6.6L2.2,24.8L2.2,24.8z"/>
				<g id="Group_6333" transform="rotate(180 7.574 6.423)">
					<path id="Path_6491" class="st4" d="M6.4,0C2.9,0,0,2.9,0,6.4s2.9,6.4,6.4,6.4s6.4-2.9,6.4-6.4l0,0C12.8,2.9,10,0,6.4,0z
						 M6.4,11c-2.5,0-4.6-2-4.6-4.6s2-4.6,4.6-4.6s4.6,2,4.6,4.6l0,0C11,8.9,8.9,11,6.4,11z"/>
				</g>
			</g>
		</g>
	</g>
</g>
</svg>
