<?xml version="1.0" encoding="utf-8"?>
<!-- Generator: Adobe Illustrator 25.0.1, SVG Export Plug-In . SVG Version: 6.00 Build 0)  -->
<svg version="1.1" id="Layer_1" xmlns="http://www.w3.org/2000/svg" xmlns:xlink="http://www.w3.org/1999/xlink" x="0px" y="0px"
	 viewBox="0 0 515 392" style="enable-background:new 0 0 515 392;" xml:space="preserve">
<style type="text/css">
	.st0{opacity:0.2;fill:#6BF996;enable-background:new    ;}
	.st1{fill:#212121;}
	.st2{opacity:0.3;fill:#CFCFCF;enable-background:new    ;}
</style>
<path class="st0" d="M341.5,392c-11.7,0-23.5-1.2-35-3.5c-22.2-4.5-43.3-13.4-62-26.1c-27.9-18.8-49.7-45.3-62.9-76.3
	c-4.4-10.5-7.8-21.4-10.1-32.6c-4.7-23.1-4.7-46.9,0-69.9c4.5-22.2,13.4-43.3,26.1-62C216.5,93.6,243,71.8,274,58.6
	c10.5-4.4,21.4-7.8,32.6-10.1c23.1-4.7,46.9-4.7,69.9,0c22.2,4.5,43.3,13.4,62,26.1c27.9,18.8,49.7,45.3,62.9,76.3
	c4.4,10.5,7.8,21.4,10.1,32.6c4.7,23.1,4.7,46.9,0,69.9c-4.5,22.2-13.4,43.3-26.1,62c-18.8,27.9-45.3,49.7-76.3,62.9
	c-10.5,4.4-21.4,7.8-32.6,10.1C365,390.8,353.2,392,341.5,392L341.5,392z M341.8,74C261.9,74,197,138.9,197,218.8
	s64.9,144.8,144.8,144.8s144.8-64.9,144.8-144.8S421.6,74,341.8,74z"/>
<path class="st1" d="M145.5,180c1.4,0,2.5-1.1,2.5-2.5s-1.1-2.5-2.5-2.5s-2.5,1.1-2.5,2.5S144.1,180,145.5,180z"/>
<path class="st1" d="M193.5,180c1.4,0,2.5-1.1,2.5-2.5s-1.1-2.5-2.5-2.5s-2.5,1.1-2.5,2.5S192.1,180,193.5,180z"/>
<path class="st1" d="M241.5,180c1.4,0,2.5-1.1,2.5-2.5s-1.1-2.5-2.5-2.5s-2.5,1.1-2.5,2.5S240.1,180,241.5,180z"/>
<path class="st1" d="M169.5,180c1.4,0,2.5-1.1,2.5-2.5s-1.1-2.5-2.5-2.5s-2.5,1.1-2.5,2.5S168.1,180,169.5,180z"/>
<path class="st1" d="M217.5,180c1.4,0,2.5-1.1,2.5-2.5s-1.1-2.5-2.5-2.5s-2.5,1.1-2.5,2.5S216.1,180,217.5,180z"/>
<path class="st1" d="M265.5,180c1.4,0,2.5-1.1,2.5-2.5s-1.1-2.5-2.5-2.5s-2.5,1.1-2.5,2.5S264.1,180,265.5,180z"/>
<path class="st1" d="M145.5,246c1.4,0,2.5-1.1,2.5-2.5s-1.1-2.5-2.5-2.5s-2.5,1.1-2.5,2.5S144.1,246,145.5,246z"/>
<path class="st1" d="M193.5,246c1.4,0,2.5-1.1,2.5-2.5s-1.1-2.5-2.5-2.5s-2.5,1.1-2.5,2.5S192.1,246,193.5,246z"/>
<path class="st1" d="M241.5,246c1.4,0,2.5-1.1,2.5-2.5s-1.1-2.5-2.5-2.5s-2.5,1.1-2.5,2.5S240.1,246,241.5,246z"/>
<path class="st1" d="M169.5,246c1.4,0,2.5-1.1,2.5-2.5s-1.1-2.5-2.5-2.5s-2.5,1.1-2.5,2.5S168.1,246,169.5,246z"/>
<path class="st1" d="M217.5,246c1.4,0,2.5-1.1,2.5-2.5s-1.1-2.5-2.5-2.5s-2.5,1.1-2.5,2.5S216.1,246,217.5,246z"/>
<path class="st1" d="M265.5,246c1.4,0,2.5-1.1,2.5-2.5s-1.1-2.5-2.5-2.5s-2.5,1.1-2.5,2.5S264.1,246,265.5,246z"/>
<path class="st1" d="M145.5,202c1.4,0,2.5-1.1,2.5-2.5s-1.1-2.5-2.5-2.5s-2.5,1.1-2.5,2.5S144.1,202,145.5,202z"/>
<path class="st1" d="M193.5,202c1.4,0,2.5-1.1,2.5-2.5s-1.1-2.5-2.5-2.5s-2.5,1.1-2.5,2.5S192.1,202,193.5,202z"/>
<path class="st1" d="M241.5,202c1.4,0,2.5-1.1,2.5-2.5s-1.1-2.5-2.5-2.5s-2.5,1.1-2.5,2.5S240.1,202,241.5,202z"/>
<path class="st1" d="M169.5,202c1.4,0,2.5-1.1,2.5-2.5s-1.1-2.5-2.5-2.5s-2.5,1.1-2.5,2.5S168.1,202,169.5,202z"/>
<path class="st1" d="M217.5,202c1.4,0,2.5-1.1,2.5-2.5s-1.1-2.5-2.5-2.5s-2.5,1.1-2.5,2.5S216.1,202,217.5,202z"/>
<path class="st1" d="M265.5,202c1.4,0,2.5-1.1,2.5-2.5s-1.1-2.5-2.5-2.5s-2.5,1.1-2.5,2.5S264.1,202,265.5,202z"/>
<path class="st1" d="M145.5,268c1.4,0,2.5-1.1,2.5-2.5s-1.1-2.5-2.5-2.5s-2.5,1.1-2.5,2.5S144.1,268,145.5,268z"/>
<path class="st1" d="M193.5,268c1.4,0,2.5-1.1,2.5-2.5s-1.1-2.5-2.5-2.5s-2.5,1.1-2.5,2.5S192.1,268,193.5,268z"/>
<path class="st1" d="M241.5,268c1.4,0,2.5-1.1,2.5-2.5s-1.1-2.5-2.5-2.5s-2.5,1.1-2.5,2.5S240.1,268,241.5,268z"/>
<path class="st1" d="M169.5,268c1.4,0,2.5-1.1,2.5-2.5s-1.1-2.5-2.5-2.5s-2.5,1.1-2.5,2.5S168.1,268,169.5,268z"/>
<path class="st1" d="M217.5,268c1.4,0,2.5-1.1,2.5-2.5s-1.1-2.5-2.5-2.5s-2.5,1.1-2.5,2.5S216.1,268,217.5,268z"/>
<path class="st1" d="M265.5,268c1.4,0,2.5-1.1,2.5-2.5s-1.1-2.5-2.5-2.5s-2.5,1.1-2.5,2.5S264.1,268,265.5,268z"/>
<path class="st1" d="M145.5,224c1.4,0,2.5-1.1,2.5-2.5s-1.1-2.5-2.5-2.5s-2.5,1.1-2.5,2.5S144.1,224,145.5,224z"/>
<path class="st1" d="M193.5,224c1.4,0,2.5-1.1,2.5-2.5s-1.1-2.5-2.5-2.5s-2.5,1.1-2.5,2.5S192.1,224,193.5,224z"/>
<path class="st1" d="M241.5,224c1.4,0,2.5-1.1,2.5-2.5s-1.1-2.5-2.5-2.5s-2.5,1.1-2.5,2.5S240.1,224,241.5,224z"/>
<path class="st1" d="M169.5,224c1.4,0,2.5-1.1,2.5-2.5s-1.1-2.5-2.5-2.5s-2.5,1.1-2.5,2.5S168.1,224,169.5,224z"/>
<path class="st1" d="M217.5,224c1.4,0,2.5-1.1,2.5-2.5s-1.1-2.5-2.5-2.5s-2.5,1.1-2.5,2.5S216.1,224,217.5,224z"/>
<path class="st1" d="M265.5,224c1.4,0,2.5-1.1,2.5-2.5s-1.1-2.5-2.5-2.5s-2.5,1.1-2.5,2.5S264.1,224,265.5,224z"/>
<path class="st1" d="M145.5,290c1.4,0,2.5-1.1,2.5-2.5s-1.1-2.5-2.5-2.5s-2.5,1.1-2.5,2.5S144.1,290,145.5,290z"/>
<path class="st1" d="M193.5,290c1.4,0,2.5-1.1,2.5-2.5s-1.1-2.5-2.5-2.5s-2.5,1.1-2.5,2.5S192.1,290,193.5,290z"/>
<path class="st1" d="M241.5,290c1.4,0,2.5-1.1,2.5-2.5s-1.1-2.5-2.5-2.5s-2.5,1.1-2.5,2.5S240.1,290,241.5,290z"/>
<path class="st1" d="M169.5,290c1.4,0,2.5-1.1,2.5-2.5s-1.1-2.5-2.5-2.5s-2.5,1.1-2.5,2.5S168.1,290,169.5,290z"/>
<path class="st1" d="M217.5,290c1.4,0,2.5-1.1,2.5-2.5s-1.1-2.5-2.5-2.5s-2.5,1.1-2.5,2.5S216.1,290,217.5,290z"/>
<path class="st1" d="M265.5,290c1.4,0,2.5-1.1,2.5-2.5s-1.1-2.5-2.5-2.5s-2.5,1.1-2.5,2.5S264.1,290,265.5,290z"/>
<path class="st1" d="M2.5,180c1.4,0,2.5-1.1,2.5-2.5S3.9,175,2.5,175S0,176.1,0,177.5S1.1,180,2.5,180z"/>
<path class="st1" d="M50.5,180c1.4,0,2.5-1.1,2.5-2.5s-1.1-2.5-2.5-2.5s-2.5,1.1-2.5,2.5S49.1,180,50.5,180z"/>
<path class="st1" d="M98.5,180c1.4,0,2.5-1.1,2.5-2.5s-1.1-2.5-2.5-2.5s-2.5,1.1-2.5,2.5S97.1,180,98.5,180z"/>
<path class="st1" d="M26.5,180c1.4,0,2.5-1.1,2.5-2.5s-1.1-2.5-2.5-2.5s-2.5,1.1-2.5,2.5S25.1,180,26.5,180z"/>
<path class="st1" d="M74.5,180c1.4,0,2.5-1.1,2.5-2.5s-1.1-2.5-2.5-2.5s-2.5,1.1-2.5,2.5S73.1,180,74.5,180z"/>
<path class="st1" d="M122.5,180c1.4,0,2.5-1.1,2.5-2.5s-1.1-2.5-2.5-2.5s-2.5,1.1-2.5,2.5S121.1,180,122.5,180z"/>
<path class="st1" d="M2.5,246c1.4,0,2.5-1.1,2.5-2.5S3.9,241,2.5,241S0,242.1,0,243.5S1.1,246,2.5,246z"/>
<path class="st1" d="M50.5,246c1.4,0,2.5-1.1,2.5-2.5s-1.1-2.5-2.5-2.5s-2.5,1.1-2.5,2.5S49.1,246,50.5,246z"/>
<path class="st1" d="M98.5,246c1.4,0,2.5-1.1,2.5-2.5s-1.1-2.5-2.5-2.5s-2.5,1.1-2.5,2.5S97.1,246,98.5,246z"/>
<path class="st1" d="M26.5,246c1.4,0,2.5-1.1,2.5-2.5s-1.1-2.5-2.5-2.5s-2.5,1.1-2.5,2.5S25.1,246,26.5,246z"/>
<path class="st1" d="M74.5,246c1.4,0,2.5-1.1,2.5-2.5s-1.1-2.5-2.5-2.5s-2.5,1.1-2.5,2.5S73.1,246,74.5,246z"/>
<path class="st1" d="M122.5,246c1.4,0,2.5-1.1,2.5-2.5s-1.1-2.5-2.5-2.5s-2.5,1.1-2.5,2.5S121.1,246,122.5,246z"/>
<path class="st1" d="M2.5,202c1.4,0,2.5-1.1,2.5-2.5S3.9,197,2.5,197S0,198.1,0,199.5S1.1,202,2.5,202z"/>
<path class="st1" d="M50.5,202c1.4,0,2.5-1.1,2.5-2.5s-1.1-2.5-2.5-2.5s-2.5,1.1-2.5,2.5S49.1,202,50.5,202z"/>
<path class="st1" d="M98.5,202c1.4,0,2.5-1.1,2.5-2.5s-1.1-2.5-2.5-2.5s-2.5,1.1-2.5,2.5S97.1,202,98.5,202z"/>
<path class="st1" d="M26.5,202c1.4,0,2.5-1.1,2.5-2.5s-1.1-2.5-2.5-2.5s-2.5,1.1-2.5,2.5S25.1,202,26.5,202z"/>
<path class="st1" d="M74.5,202c1.4,0,2.5-1.1,2.5-2.5s-1.1-2.5-2.5-2.5s-2.5,1.1-2.5,2.5S73.1,202,74.5,202z"/>
<path class="st1" d="M122.5,202c1.4,0,2.5-1.1,2.5-2.5s-1.1-2.5-2.5-2.5s-2.5,1.1-2.5,2.5S121.1,202,122.5,202z"/>
<path class="st1" d="M2.5,268c1.4,0,2.5-1.1,2.5-2.5S3.9,263,2.5,263S0,264.1,0,265.5S1.1,268,2.5,268z"/>
<path class="st1" d="M50.5,268c1.4,0,2.5-1.1,2.5-2.5s-1.1-2.5-2.5-2.5s-2.5,1.1-2.5,2.5S49.1,268,50.5,268z"/>
<path class="st1" d="M98.5,268c1.4,0,2.5-1.1,2.5-2.5s-1.1-2.5-2.5-2.5s-2.5,1.1-2.5,2.5S97.1,268,98.5,268z"/>
<path class="st1" d="M26.5,268c1.4,0,2.5-1.1,2.5-2.5s-1.1-2.5-2.5-2.5s-2.5,1.1-2.5,2.5S25.1,268,26.5,268z"/>
<path class="st1" d="M74.5,268c1.4,0,2.5-1.1,2.5-2.5s-1.1-2.5-2.5-2.5s-2.5,1.1-2.5,2.5S73.1,268,74.5,268z"/>
<path class="st1" d="M122.5,268c1.4,0,2.5-1.1,2.5-2.5s-1.1-2.5-2.5-2.5s-2.5,1.1-2.5,2.5S121.1,268,122.5,268z"/>
<path class="st1" d="M2.5,224c1.4,0,2.5-1.1,2.5-2.5S3.9,219,2.5,219S0,220.1,0,221.5S1.1,224,2.5,224z"/>
<path class="st1" d="M50.5,224c1.4,0,2.5-1.1,2.5-2.5s-1.1-2.5-2.5-2.5s-2.5,1.1-2.5,2.5S49.1,224,50.5,224z"/>
<path class="st1" d="M98.5,224c1.4,0,2.5-1.1,2.5-2.5s-1.1-2.5-2.5-2.5s-2.5,1.1-2.5,2.5S97.1,224,98.5,224z"/>
<path class="st1" d="M26.5,224c1.4,0,2.5-1.1,2.5-2.5s-1.1-2.5-2.5-2.5s-2.5,1.1-2.5,2.5S25.1,224,26.5,224z"/>
<path class="st1" d="M74.5,224c1.4,0,2.5-1.1,2.5-2.5s-1.1-2.5-2.5-2.5s-2.5,1.1-2.5,2.5S73.1,224,74.5,224z"/>
<path class="st1" d="M122.5,224c1.4,0,2.5-1.1,2.5-2.5s-1.1-2.5-2.5-2.5s-2.5,1.1-2.5,2.5S121.1,224,122.5,224z"/>
<path class="st1" d="M2.5,290c1.4,0,2.5-1.1,2.5-2.5S3.9,285,2.5,285S0,286.1,0,287.5S1.1,290,2.5,290z"/>
<path class="st1" d="M50.5,290c1.4,0,2.5-1.1,2.5-2.5s-1.1-2.5-2.5-2.5s-2.5,1.1-2.5,2.5S49.1,290,50.5,290z"/>
<path class="st1" d="M98.5,290c1.4,0,2.5-1.1,2.5-2.5s-1.1-2.5-2.5-2.5s-2.5,1.1-2.5,2.5S97.1,290,98.5,290z"/>
<path class="st1" d="M26.5,290c1.4,0,2.5-1.1,2.5-2.5s-1.1-2.5-2.5-2.5s-2.5,1.1-2.5,2.5S25.1,290,26.5,290z"/>
<path class="st1" d="M74.5,290c1.4,0,2.5-1.1,2.5-2.5s-1.1-2.5-2.5-2.5s-2.5,1.1-2.5,2.5S73.1,290,74.5,290z"/>
<path class="st1" d="M122.5,290c1.4,0,2.5-1.1,2.5-2.5s-1.1-2.5-2.5-2.5s-2.5,1.1-2.5,2.5S121.1,290,122.5,290z"/>
<path class="st2" d="M236.7,37.4l27.7-27.7c-4.9,2.8-9.5,6.2-13.6,10l-4.1,4.1C242.9,27.9,239.5,32.5,236.7,37.4L236.7,37.4z"/>
<path class="st2" d="M228.5,59.4l57.9-57.9c-1.6,0.3-3.2,0.7-4.7,1.1l-52.1,52.1C229.2,56.2,228.8,57.8,228.5,59.4z"/>
<path class="st2" d="M227,74.1c0,0.2,0,0.3,0,0.5L301.6,0c-0.2,0-0.3,0-0.5,0c-1.1,0-2.1,0-3.2,0.1l-70.8,70.8
	C227,72,227,73,227,74.1z"/>
<path class="st2" d="M228.1,87.2l86-86c-1-0.2-2.1-0.3-3.1-0.5L227.7,84C227.8,85.1,228,86.1,228.1,87.2z"/>
<path class="st2" d="M231,98.1L325.1,4c-0.9-0.3-1.8-0.6-2.7-0.9l-92.2,92.2C230.4,96.3,230.7,97.2,231,98.1z"/>
<path class="st2" d="M235.1,107.7l99.7-99.7c-0.8-0.4-1.6-0.8-2.4-1.2l-98.4,98.4C234.3,106.1,234.6,106.9,235.1,107.7z"/>
<path class="st2" d="M240.2,116.3L343.3,13.2c-0.7-0.5-1.4-1-2.2-1.5L238.8,114.2C239.2,114.9,239.7,115.6,240.2,116.3z"/>
<path class="st2" d="M246.3,124L351,19.3c-0.6-0.6-1.3-1.1-1.9-1.7L244.6,122C245.1,122.7,245.7,123.3,246.3,124z"/>
<path class="st2" d="M253.3,130.7L357.7,26.3c-0.6-0.7-1.1-1.3-1.7-1.9L251.3,129C252,129.6,252.6,130.1,253.3,130.7z"/>
<path class="st2" d="M261.2,136.5L363.5,34.2c-0.5-0.7-1-1.5-1.4-2.2L259,135.1C259.7,135.6,260.4,136.1,261.2,136.5z"/>
<path class="st2" d="M270,141.4L368.4,43c-0.4-0.8-0.8-1.6-1.2-2.4l-99.6,99.6C268.4,140.6,269.2,141,270,141.4z"/>
<path class="st2" d="M280,145.2L372.2,53c-0.3-0.9-0.6-1.8-0.9-2.7l-94,94C278.2,144.6,279.1,144.9,280,145.2z"/>
<path class="st2" d="M291.3,147.6l83.2-83.2c-0.1-1.1-0.3-2.1-0.5-3.1l-85.9,85.9C289.2,147.3,290.3,147.4,291.3,147.6z"/>
<path class="st2" d="M301.1,148.2c1.1,0,2.3,0,3.4-0.1l70.6-70.6c0.1-1.1,0.1-2.3,0.1-3.4c0-0.1,0-0.2,0-0.3l-74.4,74.4
	C300.9,148.2,301,148.2,301.1,148.2z"/>
<path class="st2" d="M320.8,145.5l51.7-51.7c0.4-1.6,0.8-3.2,1.1-4.8l-57.6,57.6C317.7,146.4,319.3,146,320.8,145.5z"/>
<path class="st2" d="M365.2,111.3l-26.9,27C349.4,131.7,358.7,122.4,365.2,111.3L365.2,111.3z"/>
</svg>
