<svg width="60" height="61" viewBox="0 0 60 61" fill="none" xmlns="http://www.w3.org/2000/svg">
<path fill-rule="evenodd" clip-rule="evenodd" d="M56.7944 20.0706C54.6424 19.6715 52.5495 21.002 52.0249 23.1026L49.6432 31.8708C48.37 31.0383 46.7296 30.9897 45.4082 31.7452L38.5132 35.7417C35.7395 37.3552 34.0333 40.2952 34.025 43.4756V51.0362H32.0083C31.4515 51.0362 31 51.4823 31 52.0326V60.0036C31 60.5539 31.4515 61 32.0083 61H50.1585C50.7154 61 51.1668 60.5539 51.1668 60.0036V52.0326C51.1668 51.4823 50.7154 51.0362 50.1585 51.0362H48.1418V49.8804C48.1416 49.0078 48.5272 48.1787 49.1976 47.6106L53.8995 43.6251C54.6718 42.9726 55.2259 42.1041 55.4886 41.1341L59.8638 25.0007C59.9557 24.6625 60.0014 24.3137 59.9999 23.9635C59.9897 22.0828 58.6558 20.4629 56.7944 20.0706ZM49.1502 59.0072H33.0167V53.0289H49.1502V59.0072ZM53.5405 40.619L57.9167 24.4836C57.9622 24.3143 57.9846 24.1397 57.9832 23.9645C57.9733 23.0284 57.3076 22.2244 56.381 22.0295C55.2812 21.8616 54.2348 22.5547 53.9741 23.6237L51.2001 33.8366C51.8564 35.7024 51.0616 37.7643 49.3155 38.7259L43.6688 41.9412C43.3565 42.1192 42.9718 42.119 42.6596 41.9407C42.3475 41.7624 42.1553 41.4331 42.1554 41.0769C42.1556 40.7206 42.3481 40.3915 42.6605 40.2135L48.3072 36.9982C49.2824 36.4747 49.6833 35.2961 49.2258 34.297C48.8879 33.6201 48.1876 33.1942 47.4239 33.2009C47.07 33.2011 46.7224 33.2928 46.4155 33.467L39.5286 37.4595C37.3724 38.7154 36.0469 41.0024 36.0417 43.4756V51.0362H46.1251V49.8804C46.1255 48.4265 46.7686 47.0453 47.8857 46.0991L52.5876 42.1136C53.0511 41.7223 53.3834 41.2011 53.5405 40.619Z" fill="#00E4FF"/>
<path fill-rule="evenodd" clip-rule="evenodd" d="M27.9918 51.0365H25.9753V43.4762C25.9684 40.2966 24.2644 37.3564 21.4927 35.7416L14.5903 31.7403C13.2679 30.9869 11.6283 31.037 10.3556 31.8698L7.9752 23.1019C7.44806 21.0024 5.35603 19.6729 3.20421 20.07C2.12103 20.2962 1.17925 20.9517 0.599071 21.8835C0.0188916 22.8153 -0.148826 23.9415 0.135132 24.999L4.51089 41.1338C4.77279 42.1038 5.32654 42.9724 6.09886 43.6247L10.8003 47.6101C11.4723 48.1776 11.8595 49.0072 11.8599 49.8808V51.0365H9.84346C9.28663 51.0365 8.83522 51.4826 8.83522 52.0329V60.0037C8.83522 60.5539 9.28663 61 9.84346 61H27.9918C28.5486 61 29 60.5539 29 60.0037V52.0329C29 51.4826 28.5486 51.0365 27.9918 51.0365ZM12.116 46.0976L7.41462 42.1122C6.9508 41.7212 6.61847 41.1999 6.46183 40.6177L2.08607 24.4839C2.04064 24.3149 2.01826 24.1406 2.01953 23.9658C2.02542 23.0257 2.69305 22.2167 3.62364 22.0219C4.72296 21.8555 5.76836 22.5479 6.0303 23.616L8.80397 33.8276C8.14721 35.6936 8.942 37.7561 10.6884 38.7177L16.3345 41.9329C16.6468 42.1109 17.0315 42.1107 17.3436 41.9324C17.6557 41.7541 17.8479 41.4248 17.8477 41.0686C17.8475 40.7123 17.655 40.3832 17.3427 40.2052L11.6966 36.99C10.7211 36.467 10.3198 35.2883 10.7771 34.2889C11.1176 33.6171 11.8154 33.1953 12.5758 33.2019C12.9272 33.2011 13.2726 33.2911 13.578 33.4629L20.4723 37.4613C22.6284 38.7166 23.9539 41.0033 23.9588 43.4762V51.0365H13.8764V49.8808C13.8766 48.4262 13.2336 47.0442 12.116 46.0976ZM10.8517 59.0073H26.9835V53.0292H10.8517V59.0073Z" fill="#00E4FF"/>
<path fill-rule="evenodd" clip-rule="evenodd" d="M46 1.029V13.9689C46.0106 23.4537 40.76 32.1687 32.3514 36.623L29.9857 37.879C29.6822 38.0403 29.3178 38.0403 29.0143 37.879L26.6486 36.623C18.2403 32.1683 12.9898 23.4535 13 13.9689V1.029C12.9993 0.66174 13.1956 0.322043 13.5148 0.138096C13.834 -0.045851 14.2275 -0.0460439 14.5469 0.13759L16.0123 0.972521C19.305 2.85118 23.324 2.96146 26.7156 1.26624L29.0308 0.109861C29.321 -0.0345533 29.6625 -0.0345533 29.9527 0.109861L32.2844 1.27034C35.6755 2.96259 39.6923 2.85117 42.9836 0.973548L44.4531 0.13759C44.7725 -0.0460439 45.166 -0.045851 45.4852 0.138096C45.8044 0.322043 46.0007 0.66174 46 1.029ZM27.62 34.8104L29.5 35.8096L31.3799 34.8104C39.1162 30.7128 43.9472 22.695 43.9375 13.9689V2.79848C40.0598 4.98189 35.3452 5.09971 31.3624 3.11274L29.4917 2.1823L27.6355 3.10658C23.6543 5.09453 18.9407 4.97903 15.0625 2.79848V13.9689C15.0533 22.6949 19.8841 30.7125 27.62 34.8104Z" fill="#00E4FF"/>
<path fill-rule="evenodd" clip-rule="evenodd" d="M41.6283 5.78476C41.8635 5.97475 42.0001 6.26098 42 6.56338V13.1304C42.0086 20.8896 37.7315 28.0189 30.882 31.6623L30.47 31.8824C30.1759 32.0392 29.8231 32.0392 29.529 31.8824L29.118 31.6623C22.2685 28.0189 17.9913 20.8896 18 13.1304V6.56238C18.0002 6.26107 18.1362 5.97589 18.3701 5.7861C18.6041 5.59632 18.9112 5.52215 19.206 5.58422C22.5443 6.29586 26.0251 5.85663 29.082 4.33802L29.544 4.10699C29.827 3.96434 30.1609 3.96434 30.444 4.10699L30.916 4.34203C33.9725 5.85855 37.452 6.29668 40.789 5.58522C41.0845 5.52142 41.393 5.59477 41.6283 5.78476ZM30 29.8661C36.1641 26.5589 40.0076 20.1266 40 13.1304V7.75757C36.5869 8.23231 33.11 7.66587 30.024 6.13231L30 6.11931L29.982 6.12931C26.894 7.6635 23.4152 8.23061 20 7.75657V13.1304C19.9924 20.1266 23.8359 26.5589 30 29.8661Z" fill="#00E4FF"/>
<path d="M36.1829 11.3237L28.0906 19.4411L24.7911 16.1314C24.3764 15.7296 23.7172 15.7353 23.3095 16.1443C22.9019 16.5532 22.8962 17.2144 23.2967 17.6304L27.3434 21.6896C27.7561 22.1035 28.4251 22.1035 28.8378 21.6896L37.6773 12.8227C37.9521 12.5565 38.0622 12.1624 37.9655 11.7917C37.8688 11.4211 37.5802 11.1316 37.2107 11.0346C36.8412 10.9376 36.4483 11.0481 36.1829 11.3237Z" fill="#00E4FF"/>
</svg>
