<svg width="85" height="95" viewBox="0 0 85 95" fill="none" xmlns="http://www.w3.org/2000/svg">
<path d="M8.41946 81.4276C8.41946 81.8414 8.1766 82.0897 7.77184 82.0897H6.31469C5.90993 82.0897 5.74803 81.9242 5.58612 81.5104L2.75279 75.2207C2.59089 74.8069 2.26708 74.1449 2.18612 73.6483H2.02422C2.10517 74.1449 2.10517 74.7242 2.10517 75.2207V82.0897H0.324219V72.4897C0.324219 72.0759 0.567076 71.8276 0.971838 71.8276H2.34803C2.75279 71.8276 2.91469 71.9932 3.0766 72.4069L5.82898 78.5311C5.99089 78.9449 6.31469 79.6069 6.55755 80.1863H6.71946C6.6385 79.6069 6.6385 79.0276 6.6385 78.5311V71.9104H8.41946V81.4276Z" fill="white"/>
<path fill-rule="evenodd" clip-rule="evenodd" d="M11.4947 82.0897L12.3042 79.1932H16.0281L16.8376 82.0897H18.6995L15.7042 72.3242C15.6233 71.9932 15.3804 71.8276 15.0566 71.8276H13.2757C12.9519 71.8276 12.709 71.9932 12.6281 72.3242L9.63281 82.0897H11.4947ZM14.3281 73.1518C14.409 73.4828 14.49 73.8138 14.5709 74.0621L15.5423 77.6207H12.709L13.6804 74.0621L13.9233 73.1518H14.3281Z" fill="white"/>
<path d="M24.3666 81.5932C24.2856 81.9242 24.0427 82.0897 23.7189 82.0897H22.0189C21.6951 82.0897 21.4523 81.8414 21.3713 81.5932L18.457 71.8276H20.3189L22.3427 79.5242C22.4237 79.8552 22.5047 80.269 22.5856 80.6828H22.9904C23.0713 80.269 23.1523 79.938 23.2332 79.5242L25.257 71.8276H27.1189L24.3666 81.5932Z" fill="white"/>
<path d="M28.4961 82.0897V71.8276H30.358V82.0897H28.4961Z" fill="white"/>
<path d="M36.5902 82.0897H34.8093V78.6138L31.4902 71.8276H33.4331L35.295 75.8001C35.4569 76.2138 35.6188 76.6276 35.6998 77.0414H35.7807C35.8617 76.6276 36.0236 76.2138 36.1855 75.8001L38.0474 71.8276H39.9093L36.5902 78.6138V82.0897Z" fill="white"/>
<path fill-rule="evenodd" clip-rule="evenodd" d="M41.1236 82.0897L41.9331 79.1932H45.657L46.4665 82.0897H48.3284L45.3331 72.3242C45.2522 71.9932 45.0093 71.8276 44.6855 71.8276H42.9046C42.5808 71.8276 42.3379 71.9932 42.257 72.3242L39.2617 82.0897H41.1236ZM43.957 73.1518C44.0379 73.4828 44.1189 73.8138 44.1998 74.0621L45.1712 77.6207H42.3379L43.3093 74.0621L43.5522 73.1518H43.957Z" fill="white"/>
<path d="M56.1822 73.4001V82.0897H54.3203V73.4001H51.2441V71.8276H59.2584V73.4001H56.1822Z" fill="white"/>
<path d="M67.1904 82.0069C65.8951 82.0897 64.357 82.0897 62.9808 82.0897C61.6856 82.0897 60.957 81.3449 60.957 80.1035V73.6483C60.957 72.4069 61.7666 71.6621 62.9808 71.6621C64.357 71.6621 65.8951 71.6621 67.1904 71.7449L67.1094 73.1518H63.3856C62.8999 73.1518 62.657 73.4 62.657 73.9794V75.8H66.5427V77.2069H62.657V79.5242C62.657 80.1862 62.8189 80.3518 63.3856 80.3518H67.1094L67.1904 82.0069Z" fill="white"/>
<path d="M75.6911 81.8414C74.8006 82.0897 73.9911 82.2552 72.6149 82.2552C69.6197 82.2552 68.4863 80.8483 68.4863 76.9587C68.4863 73.069 69.5387 71.6621 72.6149 71.6621C73.9911 71.6621 74.6387 71.7449 75.5292 71.9931L75.3673 73.4C74.4768 73.3173 73.8292 73.3173 72.6959 73.3173C70.9959 73.3173 70.5101 74.1449 70.5101 76.9587C70.5101 79.7725 70.9959 80.6 72.6959 80.6C73.9911 80.6 74.8006 80.6 75.6101 80.4345L75.6911 81.8414Z" fill="white"/>
<path d="M84.919 82.0897H83.0571V77.3725H79.0904V82.0897H77.2285V71.8276H79.0904V75.8828H83.0571V71.8276H84.919V82.0897Z" fill="white"/>
<path fill-rule="evenodd" clip-rule="evenodd" d="M9.63452 87.3035C8.50119 87.3035 7.93452 87.3035 7.20595 87.3862H7.125V94.3379H8.33929V91.6897C8.74405 91.7724 9.22976 91.7724 9.71548 91.7724C11.3345 91.7724 11.9012 91.2759 11.9012 89.5379C11.9012 87.8 11.3345 87.3035 9.63452 87.3035ZM10.7679 89.5379C10.7679 90.4483 10.444 90.6966 9.63452 90.6966V90.7793H8.42024V88.3793H9.63452C10.525 88.3793 10.7679 88.6276 10.7679 89.5379Z" fill="#BBBBBB"/>
<path fill-rule="evenodd" clip-rule="evenodd" d="M16.1912 92.1035L16.7579 94.2552H17.9722L17.4055 92.1035C17.2436 91.4414 16.8388 91.1931 16.515 91.1104V91.0276C17.4055 90.8621 17.7293 90.2828 17.7293 89.2897C17.7293 87.7173 17.0007 87.3035 15.3817 87.3035C14.2484 87.3035 13.6817 87.3035 12.9531 87.3862V94.2552H14.1674V91.5242H15.3817C15.7865 91.5242 16.0293 91.6897 16.1912 92.1035ZM16.596 89.3724C16.596 90.2 16.3531 90.4483 15.4626 90.4483H14.2484V88.2966H15.4626C16.3531 88.2966 16.596 88.5448 16.596 89.3724Z" fill="#BBBBBB"/>
<path d="M19.1875 94.2552V87.3862H20.4018V94.2552H19.1875Z" fill="#BBBBBB"/>
<path d="M25.1776 93.9242C25.0967 94.1724 24.9347 94.2552 24.6919 94.2552H23.5586C23.3157 94.2552 23.1538 94.0897 23.1538 93.9242L21.2109 87.3862H22.4252L23.8014 92.5173C23.8824 92.7655 23.8824 93.0138 23.9633 93.2621H24.2871C24.3681 93.0138 24.3681 92.7655 24.449 92.5173L25.8252 87.3862H27.0395L25.1776 93.9242Z" fill="#BBBBBB"/>
<path fill-rule="evenodd" clip-rule="evenodd" d="M28.0912 94.1724L28.6579 92.269H31.1674L31.7341 94.1724H32.9484L30.9246 87.6345C30.9246 87.3862 30.7627 87.3035 30.5198 87.3035H29.3055C29.1436 87.3035 28.9817 87.3862 28.9008 87.6345L26.877 94.1724H28.0912ZM30.115 88.669C30.1353 88.7724 30.1555 88.8759 30.196 88.9586L30.9246 91.3586H28.9817L29.6293 88.9586L29.7912 88.3793H30.0341C30.0746 88.4621 30.0948 88.5655 30.115 88.669Z" fill="#BBBBBB"/>
<path d="M35.9432 88.4621V94.2552H34.7289V88.4621H32.7051V87.3862H38.0479V88.4621H35.9432Z" fill="#BBBBBB"/>
<path d="M43.3109 94.1724C42.4204 94.2552 41.368 94.2552 40.3966 94.2552C39.5061 94.2552 38.9395 93.7586 38.9395 92.9311V88.6276C38.9395 87.8 39.5061 87.3035 40.3966 87.3035C41.368 87.3035 42.5014 87.3035 43.3109 87.3862L43.2299 88.3793H40.6395C40.3156 88.3793 40.1537 88.5448 40.1537 88.9586V90.2H42.9061V91.1931H40.1537V92.6828C40.1537 93.0966 40.3156 93.2621 40.6395 93.2621H43.2299L43.3109 94.1724Z" fill="#BBBBBB"/>
<path d="M47.7631 92.6C47.7631 93.0138 47.925 93.1793 48.3298 93.1793H50.6774L50.7584 94.1724C49.9488 94.2552 48.9774 94.2552 48.0869 94.2552C46.9536 94.2552 46.5488 93.6759 46.5488 92.8483V87.3862H47.7631V92.6Z" fill="#BBBBBB"/>
<path d="M51.6484 94.2552V87.3862H52.8627V94.2552H51.6484Z" fill="#BBBBBB"/>
<path d="M60.9593 87.3862C61.2831 87.3862 61.445 87.5517 61.445 87.8828L61.6879 94.2552H60.4736L60.2307 88.3793H60.0688L58.9355 92.9311C58.8545 93.1793 58.6926 93.3449 58.4498 93.3449H57.4783C57.2355 93.3449 56.9926 93.1793 56.9926 92.9311L55.7783 88.3793H55.6164L55.3736 94.2552H54.2402L54.4831 87.8828C54.4831 87.5517 54.645 87.3862 54.9688 87.3862H56.264C56.5069 87.3862 56.6688 87.5517 56.7498 87.8L57.7212 91.5242C57.8021 91.8552 57.8831 92.1035 57.964 92.4345H58.1259C58.2069 92.1035 58.2069 91.8552 58.3688 91.5242L59.3402 87.8C59.4212 87.5517 59.5831 87.3862 59.8259 87.3862H60.9593V87.3862Z" fill="#BBBBBB"/>
<path d="M63.0625 94.2552V87.3862H64.2768V94.2552H63.0625Z" fill="#BBBBBB"/>
<path d="M68.4861 88.4621V94.2552H67.2719V88.4621H65.248V87.3862H70.5909V88.4621H68.4861Z" fill="#BBBBBB"/>
<path d="M75.8539 94.1724C74.9634 94.2552 73.911 94.2552 72.9396 94.2552C72.0491 94.2552 71.4824 93.7586 71.4824 92.9311V88.6276C71.4824 87.8 72.0491 87.3035 72.9396 87.3035C73.911 87.3035 75.0443 87.3035 75.8539 87.3862L75.7729 88.3793H73.1824C72.8586 88.3793 72.6967 88.5448 72.6967 88.9586V90.2H75.4491V91.1931H72.6967V92.6828C72.6967 93.0966 72.8586 93.2621 73.1824 93.2621H75.7729L75.8539 94.1724Z" fill="#BBBBBB"/>
<path fill-rule="evenodd" clip-rule="evenodd" d="M79.5779 87.3035C78.6065 87.3035 77.7969 87.3035 77.0684 87.3862V94.1724C77.7969 94.2552 78.6065 94.2552 79.5779 94.2552C81.6017 94.2552 82.3303 93.4276 82.3303 90.7793C82.3303 88.1311 81.6017 87.3035 79.5779 87.3035ZM79.5779 93.2621H78.2826V88.2966H79.5779C80.7112 88.2966 81.035 88.8759 81.035 90.7793C81.035 92.6828 80.7112 93.2621 79.5779 93.2621Z" fill="#BBBBBB"/>
<path d="M28.2835 10.8063L24.3301 5.28125L28.2835 10.8063Z" fill="black"/>
<path d="M79.5966 32.7437C79.5966 32.7437 70.2375 52.7312 57.4091 60.3687C52.5682 63.2937 46.9205 64.9187 40.95 64.9187C40.0625 64.9187 39.175 64.9187 38.2875 64.8374L41.3534 58.1749C43.6125 58.1749 45.7909 57.7687 47.8886 57.2H47.9693C48.292 57.1187 48.6148 56.9562 49.0182 56.875C53.5364 55.3312 57.5705 52.5687 60.475 48.9125C61.2818 47.9375 62.008 46.8812 62.6534 45.825C64.9125 42.0062 66.2034 37.6187 66.2034 32.825C66.2034 18.85 54.908 7.47495 41.0307 7.47495C39.0943 7.47495 37.2386 7.7187 35.383 8.12495L33.2045 5.1187L31.1875 2.27495C34.3341 1.2187 37.642 0.731201 41.0307 0.731201C45.5489 0.731201 49.825 1.7062 53.6977 3.41245C58.2966 5.1187 62.492 8.61245 66.1227 12.5937C74.2716 21.2875 79.5966 32.7437 79.5966 32.7437Z" fill="url(#paint0_linear)"/>
<path d="M21.0216 17.3062C17.7943 21.6125 15.858 26.8937 15.7773 32.7437C15.7773 44.2812 23.442 54.0312 33.85 57.1187L30.9455 63.2937C18.1977 59.0687 9 46.9625 9 32.7437C9 24.7 11.9852 17.3062 16.8261 11.6187C16.9068 11.5375 16.9068 11.4562 16.9875 11.375C17.5523 10.725 18.1977 10.075 18.8432 9.42495C19.2466 9.0187 19.65 8.61245 20.1341 8.28745C20.8602 7.63745 21.667 6.98745 22.4739 6.4187C22.7966 6.17495 23.2 5.9312 23.5227 5.68745C23.7648 5.52495 24.0068 5.36245 24.2489 5.19995L28.2023 10.725L48.05 38.1875L54.5852 47.2875H46.1943L22.958 15.0312C22.2318 15.7625 21.5864 16.4937 21.0216 17.3062Z" fill="url(#paint1_linear)"/>
<path d="M54.586 47.2875L48.0508 38.1875V15.0312L54.8281 23.1562V43.7938V47.2875H54.586Z" fill="url(#paint2_linear)"/>
<defs>
<linearGradient id="paint0_linear" x1="37.3503" y1="-12.7529" x2="-1.16362" y2="40.067" gradientUnits="userSpaceOnUse">
<stop stop-color="#69FF97"/>
<stop offset="0.2288" stop-color="#67FE99"/>
<stop offset="0.3602" stop-color="#5EFCA2"/>
<stop offset="0.4669" stop-color="#50F9AF"/>
<stop offset="0.5603" stop-color="#3DF4C3"/>
<stop offset="0.6451" stop-color="#23EDDD"/>
<stop offset="0.7226" stop-color="#04E5FB"/>
<stop offset="0.7305" stop-color="#00E4FF"/>
<stop offset="0.9434" stop-color="#007987"/>
</linearGradient>
<linearGradient id="paint1_linear" x1="9.05357" y1="5.28193" x2="9.05357" y2="63.299" gradientUnits="userSpaceOnUse">
<stop stop-color="#69FF97"/>
<stop offset="0.1768" stop-color="#66FE9A"/>
<stop offset="0.3074" stop-color="#5DFCA3"/>
<stop offset="0.4231" stop-color="#4DF8B3"/>
<stop offset="0.5302" stop-color="#36F2CA"/>
<stop offset="0.6305" stop-color="#19EAE6"/>
<stop offset="0.7007" stop-color="#00E4FF"/>
<stop offset="1" stop-color="#007987"/>
</linearGradient>
<linearGradient id="paint2_linear" x1="50.4793" y1="7.13919" x2="38.8232" y2="10.0631" gradientUnits="userSpaceOnUse">
<stop offset="0.1638" stop-color="#69FF97"/>
<stop offset="0.2548" stop-color="#65FE9B"/>
<stop offset="0.3458" stop-color="#59FBA7"/>
<stop offset="0.4368" stop-color="#45F6BB"/>
<stop offset="0.5278" stop-color="#29EFD7"/>
<stop offset="0.6181" stop-color="#05E5FA"/>
<stop offset="0.6293" stop-color="#00E4FF"/>
<stop offset="1" stop-color="#007987"/>
</linearGradient>
</defs>
</svg>
