<?xml version="1.0" encoding="utf-8"?>
<!-- Generator: Adobe Illustrator 25.0.1, SVG Export Plug-In . SVG Version: 6.00 Build 0)  -->
<svg version="1.1" id="Layer_1" xmlns="http://www.w3.org/2000/svg" xmlns:xlink="http://www.w3.org/1999/xlink" x="0px" y="0px"
	 viewBox="0 0 116.6 123.7" style="enable-background:new 0 0 116.6 123.7;" xml:space="preserve">
<style type="text/css">
	.st0{fill:#F7F7F7;}
	.st1{stroke:#FFFFFF;}
	.st2{fill:#43E97B;stroke:#FFFFFF;stroke-width:0.5;}
</style>
<g id="Group_6475" transform="translate(-122.001 -3152.941)">
	<g id="Group_6474">
		<path id="Path_5860" class="st0" d="M197,3196.2l41.6,13l-67.4,67.4l-49.3-49.3L197,3196.2z"/>
		<g id="interview" transform="translate(135 3147.937)">
			<g id="Group_6321" transform="translate(61.918 73.28)">
				<g id="Group_6320">
					<path id="Path_6637" d="M3,0.5c-0.7-0.7-1.8-0.7-2.5,0c-0.7,0.7-0.7,1.8,0,2.5C1.2,3.6,2.3,3.6,3,3c0.3-0.3,0.5-0.8,0.5-1.2
						C3.5,1.3,3.3,0.8,3,0.5z"/>
				</g>
			</g>
			<g id="Group_6323" transform="translate(0 14.262)">
				<g id="Group_6322">
					<path id="Path_6638" class="st1" d="M83.4,13.8c1.4-1.4,2.1-3.2,2.1-5.1V7.3c0-4-3.3-7.3-7.3-7.3S71,3.3,71,7.3v1.4
						c0,1.9,0.8,3.8,2.1,5.2c-2.9,1.6-4.9,4.4-5.5,7.7h-8c-2.9,0-5.2,2.3-5.2,5.2c0,0.6,0.1,1.2,0.3,1.7H34.3c1-2.7-0.5-5.7-3.2-6.7
						c-0.6-0.2-1.1-0.3-1.7-0.3h-8c-0.5-3.3-2.6-6.1-5.5-7.7c1.4-1.4,2.1-3.2,2.1-5.2V7.3c0-4-3.3-7.3-7.3-7.3S3.5,3.3,3.5,7.3v1.4
						c0,1.9,0.8,3.8,2.1,5.1C2.2,15.7,0,19.4,0,23.3v19.5c0,5.5,4.4,9.9,9.9,9.9h13.8v16.6c0,0.7,0.1,1.4,0.4,2h-6.9
						c-1,0-1.7,0.8-1.7,1.7s0.8,1.7,1.7,1.7h62.2c1,0,1.7-0.8,1.7-1.7s-0.8-1.7-1.7-1.7H65c0.3-0.6,0.4-1.3,0.4-2v-2
						c0-1-0.8-1.7-1.7-1.7c-1,0-1.7,0.8-1.7,1.7v2c0,1.1-0.9,2-2,2s-2-0.9-2-2v-22c0-2.7,2.2-4.9,4.9-4.9h22.7v0.4
						c0,3.5-2.9,6.4-6.4,6.4H63.7c-1,0-1.7,0.8-1.7,1.7v2.8c0,1,0.8,1.7,1.7,1.7c1,0,1.7-0.8,1.7-1.7v-1h13.8c5.5,0,9.9-4.4,9.9-9.9
						V23.3C89,19.4,86.9,15.7,83.4,13.8z M74.4,7.3c0-2.1,1.7-3.8,3.8-3.8s3.8,1.7,3.8,3.8v1.4c0,2.1-1.7,3.8-3.8,3.8
						s-3.8-1.7-3.8-3.8V7.3z M7,7.3c0-2.1,1.7-3.8,3.8-3.8s3.8,1.7,3.8,3.8v1.4c0,2.1-1.7,3.8-3.8,3.8S7,10.8,7,8.7V7.3z M3.5,23.3
						c0-4,3.3-7.3,7.3-7.3s7.3,3.3,7.3,7.3c0,1,0.8,1.7,1.7,1.7h9.6c1,0,1.7,0.8,1.7,1.7c0,1-0.8,1.7-1.7,1.7H19.3
						c-2.8,0-5.3-1.5-6.6-4c-0.5-0.8-1.5-1.2-2.4-0.7s-1.2,1.5-0.7,2.4l0,0c1.7,3.2,4.9,5.4,8.6,5.7c-0.1,0.2-0.1,0.4-0.1,0.6V39
						H3.5V23.3z M24.9,39h-3.4v-6.4c0-0.2,0-0.4-0.1-0.5h3.5C23.7,34.2,23.7,36.8,24.9,39z M31.1,69.3c0,1.1-0.9,2-2,2s-2-0.9-2-2
						V51c0-1-0.8-1.7-1.7-1.7H9.9c-3.5,0-6.4-2.9-6.4-6.4v-0.4h22.7c2.7,0,4.9,2.2,4.9,4.9L31.1,69.3z M39.3,71.3h-5.1
						c0.3-0.6,0.4-1.3,0.4-2v-22c0-1.8-0.6-3.5-1.6-4.9h6.3L39.3,71.3z M46.3,71.3h-3.5V42.4h3.5V71.3z M54.8,71.3h-5.1V42.4H56
						c-1,1.4-1.6,3.1-1.6,4.9v22C54.4,70,54.6,70.7,54.8,71.3z M58.1,39H31c-1.9,0-3.5-1.6-3.4-3.5c0-1.9,1.5-3.4,3.4-3.4h27.1
						c1.9,0,3.5,1.5,3.5,3.4c0,1.9-1.5,3.5-3.4,3.5C58.2,39,58.1,39,58.1,39L58.1,39z M67.5,32.5V39h-3.4c1.2-2.2,1.2-4.8,0-7h3.5
						C67.5,32.2,67.5,32.3,67.5,32.5L67.5,32.5z M85.6,39H71v-6.4c0-0.2,0-0.4-0.1-0.6c3.6-0.4,6.9-2.5,8.6-5.7
						c0.5-0.8,0.1-1.9-0.7-2.4s-1.9-0.1-2.4,0.7c-1.3,2.4-3.8,4-6.6,4H59.7c-1,0-1.7-0.8-1.7-1.7c0-1,0.8-1.7,1.7-1.7h9.6
						c1,0,1.7-0.8,1.7-1.7c0-4,3.3-7.3,7.3-7.3s7.3,3.3,7.3,7.3V39z"/>
				</g>
			</g>
			<g id="Group_6325" transform="translate(30.261 5.255)">
				<g id="Group_6324">
					<path id="Path_6639" class="st2" d="M24.3,0H4.2C1.9,0,0,1.9,0,4.2v13.7c0,2.3,1.9,4.2,4.2,4.2h4.9l4.2,4.2
						c0.5,0.5,1.4,0.5,2,0l4.2-4.2h4.9c2.3,0,4.2-1.9,4.2-4.2V4.2C28.5,1.9,26.7,0,24.3,0C24.3,0,24.3,0,24.3,0z M25.7,17.9
						c0,0.8-0.6,1.4-1.4,1.4h-5.5c-0.4,0-0.7,0.1-1,0.4l-3.6,3.6l-3.6-3.6c-0.3-0.3-0.6-0.4-1-0.4H4.2c-0.8,0-1.4-0.6-1.4-1.4V4.2
						c0-0.8,0.6-1.4,1.4-1.4h20.1c0.8,0,1.4,0.6,1.4,1.4L25.7,17.9z"/>
				</g>
			</g>
			<g id="Group_6332">
				<g id="Group_6327" transform="translate(37.061 15.638)">
					<g id="Group_6326">
						<path id="Path_6640" d="M2.2,0.4c-0.5-0.5-1.3-0.5-1.9,0c-0.5,0.5-0.5,1.3,0,1.9c0.5,0.5,1.3,0.5,1.9,0C2.5,2,2.6,1.7,2.6,1.3
							C2.6,1,2.5,0.6,2.2,0.4z"/>
					</g>
				</g>
				<g id="Group_6329" transform="translate(43.216 15.638)">
					<g id="Group_6328">
						<path id="Path_6641" d="M2.2,0.4c-0.5-0.5-1.3-0.5-1.9,0c-0.5,0.5-0.5,1.3,0,1.9c0.5,0.5,1.3,0.5,1.9,0C2.5,2,2.6,1.7,2.6,1.3
							C2.6,1,2.5,0.6,2.2,0.4z"/>
					</g>
				</g>
				<g id="Group_6331" transform="translate(49.37 15.638)">
					<g id="Group_6330">
						<path id="Path_6642" d="M2.2,0.4c-0.5-0.5-1.3-0.5-1.9,0c-0.5,0.5-0.5,1.3,0,1.9c0.5,0.5,1.3,0.5,1.9,0C2.5,2,2.6,1.7,2.6,1.3
							C2.6,1,2.5,0.6,2.2,0.4z"/>
					</g>
				</g>
			</g>
		</g>
	</g>
</g>
</svg>
