<?xml version="1.0" encoding="utf-8"?>
<!-- Generator: Adobe Illustrator 25.0.1, SVG Export Plug-In . SVG Version: 6.00 Build 0)  -->
<svg version="1.1" id="Layer_1" xmlns="http://www.w3.org/2000/svg" xmlns:xlink="http://www.w3.org/1999/xlink" x="0px" y="0px"
	 viewBox="0 0 120.9 124.9" style="enable-background:new 0 0 120.9 124.9;" xml:space="preserve">
<style type="text/css">
	.st0{fill:#F7F7F7;}
	.st1{fill:#43E97B;}
</style>
<g id="Group_6473" transform="translate(-120 -3425)">
	<g id="Group_6472">
		<path id="Path_5861" class="st0" d="M197.8,3466.5l43.1,13.5l-69.8,69.8l-51.1-51.1L197.8,3466.5z"/>
		<g id="Group_6471" transform="translate(-12.527 3170)">
			<g id="Group_6362" transform="translate(158.035 231.986)">
				<g id="noun_avatar_2480277" transform="rotate(180 23.387 53.625)">
					<g id="Group_5585">
						<g id="Group_5583" transform="translate(9.241 40.017)">
							<path id="Path_6491" d="M8.4,0C3.8,0,0,3.8,0,8.4s3.8,8.4,8.4,8.4s8.4-3.8,8.4-8.4C16.8,3.8,13,0,8.4,0z M8.4,14.4
								c-3.3,0-6-2.7-6-6s2.7-6,6-6c3.3,0,6,2.7,6,6C14.4,11.7,11.7,14.4,8.4,14.4z"/>
						</g>
						<g id="Group_5584">
							<path id="Path_6492" d="M23.1,0H12.2c-2.2,0-4,1.8-4,4v13.5H4.3c-2.4,0-4.3,1.9-4.3,4.3V33c0,2.4,1.9,4.3,4.3,4.3h26.6
								c2.4,0,4.3-1.9,4.3-4.3V21.8c0-2.4-1.9-4.3-4.3-4.3h-3.9V4C27.1,1.8,25.3,0,23.1,0z M4.3,34.9c-1.1,0-1.9-0.9-1.9-1.9V21.8
								c0-1.1,0.9-1.9,1.9-1.9h5.1c0.7,0,1.2-0.5,1.2-1.2V4c0-0.9,0.7-1.6,1.6-1.6h10.9c0.9,0,1.6,0.7,1.6,1.6v14.7
								c0,0.7,0.5,1.2,1.2,1.2h5.1c1.1,0,1.9,0.9,1.9,1.9V33c0,1.1-0.9,1.9-1.9,1.9H4.3z"/>
						</g>
					</g>
				</g>
			</g>
			<path id="Path_6705" class="st1" d="M209.7,255h-16.8c-3.2,0-5.8,2.6-5.8,5.8v12.5c0,3,2.2,5.5,5.2,5.8v3c0,0.6,0.5,1.2,1.2,1.2
				c0.3,0,0.6-0.1,0.8-0.3l3.8-3.8h11.7c3.2,0,5.8-2.6,5.8-5.8v-12.5C215.5,257.6,212.9,255,209.7,255z M213.2,273.3
				c0,1.9-1.6,3.5-3.5,3.5h-12.2c-0.3,0-0.6,0.1-0.8,0.3l-2.2,2.2V278c0-0.6-0.5-1.2-1.2-1.2l0,0h-0.5c-1.9,0-3.5-1.6-3.5-3.5v-12.5
				c0-1.9,1.6-3.5,3.5-3.5h16.8c1.9,0,3.5,1.6,3.5,3.5V273.3z"/>
			<path id="Path_5802" d="M208.1,262.5c-0.4-0.4-1-0.4-1.3,0c0,0,0,0,0,0l-6.9,6.8l-3.6-3.5c-0.4-0.4-1-0.4-1.4-0.1
				c-0.4,0.4-0.4,1-0.1,1.4c0,0,0,0,0.1,0.1l4.1,4.1c0.4,0.4,1,0.4,1.3,0c0,0,0,0,0,0l7.6-7.5C208.4,263.5,208.5,262.9,208.1,262.5
				C208.1,262.5,208.1,262.5,208.1,262.5z"/>
		</g>
	</g>
</g>
</svg>
