<svg width="408" height="160" viewBox="0 0 408 160" fill="none" xmlns="http://www.w3.org/2000/svg">
<path d="M224.099 89.0263C224.099 90.0194 223.515 90.6153 222.542 90.6153H219.039C218.066 90.6153 217.677 90.218 217.288 89.2249L210.477 74.1298C210.088 73.1367 209.309 71.5477 209.115 70.356H208.725C208.92 71.5477 208.92 72.938 208.92 74.1298V90.6153H204.639V67.5753C204.639 66.5822 205.222 65.9863 206.196 65.9863H209.504C210.477 65.9863 210.866 66.3836 211.255 67.3767L217.872 82.0746C218.261 83.0677 219.039 84.6567 219.623 86.047H220.012C219.818 84.6567 219.818 83.2663 219.818 82.0746V66.1849H224.099V89.0263V89.0263Z" fill="white"/>
<path fill-rule="evenodd" clip-rule="evenodd" d="M231.495 90.6153L233.441 83.6636H242.393L244.339 90.6153H248.815L241.615 67.1781C241.42 66.3836 240.836 65.9863 240.058 65.9863H235.777C234.998 65.9863 234.414 66.3836 234.22 67.1781L227.02 90.6153H231.495ZM238.307 69.1644C238.502 69.9589 238.696 70.7534 238.891 71.3492L241.226 79.8899H234.415L236.75 71.3492L237.334 69.1644H238.307L238.307 69.1644Z" fill="white"/>
<path d="M262.437 89.4236C262.242 90.218 261.658 90.6153 260.88 90.6153H256.793C256.015 90.6153 255.431 90.0194 255.236 89.4236L248.23 65.9863H252.706L257.571 84.458C257.766 85.2525 257.961 86.2456 258.155 87.2387H259.128C259.323 86.2456 259.517 85.4511 259.712 84.458L264.577 65.9863H269.053L262.437 89.4236Z" fill="white"/>
<path d="M272.361 90.6153V65.9863H276.837V90.6153H272.361Z" fill="white"/>
<path d="M291.821 90.6153H287.539V82.2732L279.561 65.9863H284.231L288.707 75.5201C289.096 76.5132 289.485 77.5063 289.68 78.4994H289.875C290.069 77.5063 290.458 76.5132 290.848 75.5201L295.323 65.9863H299.799L291.821 82.2732V90.6153V90.6153Z" fill="white"/>
<path fill-rule="evenodd" clip-rule="evenodd" d="M302.72 90.6153L304.666 83.6636H313.618L315.564 90.6153H320.04L312.839 67.1781C312.645 66.3836 312.061 65.9863 311.283 65.9863H307.001C306.223 65.9863 305.639 66.3836 305.444 67.1781L298.244 90.6153H302.72ZM309.532 69.1644C309.726 69.9589 309.921 70.7534 310.115 71.3492L312.451 79.8899H305.64L307.975 71.3492L308.559 69.1644H309.532Z" fill="white"/>
<path d="M338.914 69.7601V90.6153H334.438V69.7601H327.043V65.9863H346.309V69.7601H338.914Z" fill="white"/>
<path d="M365.381 90.4167C362.267 90.6153 358.57 90.6153 355.262 90.6153C352.148 90.6153 350.396 88.8277 350.396 85.8484V70.356C350.396 67.3767 352.343 65.5891 355.262 65.5891C358.57 65.5891 362.267 65.5891 365.381 65.7877L365.186 69.1643H356.235C355.067 69.1643 354.483 69.7601 354.483 71.1505V75.5201H363.824V78.8967H354.483V84.4581C354.483 86.047 354.872 86.4443 356.235 86.4443H365.186L365.381 90.4167Z" fill="white"/>
<path d="M385.816 90.0194C383.675 90.6153 381.729 91.0125 378.421 91.0125C371.221 91.0125 368.496 87.636 368.496 78.3008C368.496 68.9657 371.026 65.5891 378.421 65.5891C381.729 65.5891 383.286 65.7877 385.427 66.3836L385.037 69.7601C382.897 69.5615 381.34 69.5615 378.615 69.5615C374.529 69.5615 373.361 71.5477 373.361 78.3008C373.361 85.0539 374.529 87.0401 378.615 87.0401C381.729 87.0401 383.675 87.0401 385.621 86.6429L385.816 90.0194Z" fill="white"/>
<path d="M407.999 90.6153H403.523V79.2939H393.988V90.6153H389.512V65.9863H393.988V75.7187H403.523V65.9863H407.999V90.6153Z" fill="white"/>
<path fill-rule="evenodd" clip-rule="evenodd" d="M211.054 103.128C208.33 103.128 206.968 103.128 205.216 103.327H205.021V120.011H207.941V113.655C208.914 113.854 210.081 113.854 211.249 113.854C215.141 113.854 216.503 112.662 216.503 108.491C216.503 104.32 215.141 103.128 211.054 103.128ZM213.779 108.491C213.779 110.676 213.001 111.272 211.055 111.272V111.47H208.136V105.71H211.055C213.196 105.71 213.779 106.306 213.779 108.491Z" fill="#BBBBBB"/>
<path fill-rule="evenodd" clip-rule="evenodd" d="M226.817 114.648L228.18 119.813H231.099L229.736 114.648C229.347 113.059 228.374 112.464 227.596 112.265V112.066C229.736 111.669 230.515 110.279 230.515 107.895C230.515 104.122 228.763 103.128 224.871 103.128C222.147 103.128 220.785 103.128 219.033 103.327V119.813H221.952V113.258H224.871C225.844 113.258 226.428 113.655 226.817 114.648ZM227.791 108.094C227.791 110.08 227.207 110.676 225.067 110.676H222.148V105.512H225.067C227.207 105.512 227.791 106.108 227.791 108.094Z" fill="#BBBBBB"/>
<path d="M234.018 119.812V103.327H236.937V119.812H234.018Z" fill="#BBBBBB"/>
<path d="M248.418 119.018C248.224 119.614 247.835 119.812 247.251 119.812H244.526C243.943 119.812 243.553 119.415 243.553 119.018L238.883 103.327H241.802L245.11 115.641C245.305 116.237 245.305 116.833 245.499 117.429H246.278C246.472 116.833 246.472 116.237 246.667 115.641L249.975 103.327H252.894L248.418 119.018Z" fill="#BBBBBB"/>
<path fill-rule="evenodd" clip-rule="evenodd" d="M255.423 119.614L256.785 115.046H262.818L264.18 119.614H267.099L262.234 103.923C262.234 103.327 261.845 103.128 261.261 103.128H258.342C257.953 103.128 257.564 103.327 257.369 103.923L252.504 119.614H255.423ZM260.288 106.406C260.337 106.654 260.386 106.902 260.483 107.101L262.235 112.861H257.564L259.121 107.101L259.51 105.71H260.094C260.191 105.909 260.24 106.157 260.288 106.406Z" fill="#BBBBBB"/>
<path d="M274.3 105.909V119.812H271.381V105.909H266.516V103.327H279.359V105.909H274.3Z" fill="#BBBBBB"/>
<path d="M292.009 119.614C289.868 119.813 287.338 119.813 285.003 119.813C282.862 119.813 281.5 118.621 281.5 116.635V106.306C281.5 104.32 282.862 103.128 285.003 103.128C287.338 103.128 290.063 103.128 292.009 103.327L291.814 105.71H285.587C284.808 105.71 284.419 106.108 284.419 107.101V110.08H291.036V112.464H284.419V116.039C284.419 117.032 284.808 117.429 285.587 117.429H291.814L292.009 119.614Z" fill="#BBBBBB"/>
<path d="M302.712 115.84C302.712 116.833 303.101 117.23 304.074 117.23H309.718L309.912 119.614C307.966 119.812 305.631 119.812 303.49 119.812C300.766 119.812 299.793 118.422 299.793 116.436V103.327H302.712V115.84Z" fill="#BBBBBB"/>
<path d="M312.053 119.812V103.327H314.972V119.812H312.053Z" fill="#BBBBBB"/>
<path d="M334.433 103.327C335.212 103.327 335.601 103.724 335.601 104.519L336.185 119.812H333.266L332.682 105.71H332.293L329.568 116.634C329.374 117.23 328.984 117.628 328.401 117.628H326.065C325.482 117.628 324.898 117.23 324.898 116.634L321.979 105.71H321.59L321.006 119.812H318.281L318.865 104.519C318.865 103.724 319.254 103.327 320.033 103.327H323.146C323.73 103.327 324.119 103.724 324.314 104.32L326.649 113.258C326.844 114.052 327.038 114.648 327.233 115.443H327.622C327.817 114.648 327.817 114.052 328.206 113.258L330.541 104.32C330.736 103.724 331.125 103.327 331.709 103.327H334.433V103.327Z" fill="#BBBBBB"/>
<path d="M339.492 119.812V103.327H342.411V119.812H339.492Z" fill="#BBBBBB"/>
<path d="M352.53 105.909V119.812H349.611V105.909H344.746V103.327H357.59V105.909H352.53Z" fill="#BBBBBB"/>
<path d="M370.239 119.614C368.098 119.813 365.569 119.813 363.233 119.813C361.093 119.813 359.73 118.621 359.73 116.635V106.306C359.73 104.32 361.093 103.128 363.233 103.128C365.569 103.128 368.293 103.128 370.239 103.327L370.044 105.71H363.817C363.039 105.71 362.65 106.108 362.65 107.101V110.08H369.266V112.464H362.65V116.039C362.65 117.032 363.039 117.429 363.817 117.429H370.044L370.239 119.614Z" fill="#BBBBBB"/>
<path fill-rule="evenodd" clip-rule="evenodd" d="M379.193 103.128C376.858 103.128 374.912 103.128 373.16 103.327V119.614C374.912 119.813 376.858 119.813 379.193 119.813C384.058 119.813 385.809 117.826 385.809 111.47C385.809 105.115 384.058 103.128 379.193 103.128ZM379.192 117.429H376.079V105.512H379.192C381.917 105.512 382.695 106.902 382.695 111.471C382.695 116.039 381.917 117.429 379.192 117.429Z" fill="#BBBBBB"/>
<path d="M175.042 79.9231C175.042 79.9231 151.885 129.547 119.925 148.651L119.845 148.699H119.816C107.541 156.119 93.497 160.026 79.1902 160C76.9884 160 74.8057 159.907 72.6421 159.721L80.1562 143.068C85.6417 142.99 91.0931 142.182 96.3694 140.665L96.5169 140.622C97.3608 140.379 98.1984 140.116 99.0296 139.834V139.834C130.571 129.126 148.267 95.3388 139.278 62.9894C130.289 30.6401 97.7686 11.0783 65.3136 18.4985L59.8695 10.9357L54.7871 3.87747C73.1492 -2.10016 93.0366 -1.14056 110.75 6.57777V6.57777H110.789C122.124 10.9021 132.603 19.5507 141.668 29.4678C161.869 51.5988 175.042 79.9231 175.042 79.9231Z" fill="url(#paint0_linear)"/>
<path d="M113.448 116.723L96.7921 116.406L92.1809 116.32L34.5615 35.9208C19.2297 51.7598 13.2485 74.5571 18.8033 95.9825C24.358 117.408 40.635 134.322 61.6866 140.545L54.4532 156.002C29.2339 147.615 9.85104 127.033 2.82545 101.179C-4.20014 75.3259 2.0654 47.6381 19.5142 27.4307L19.952 26.907C21.4399 25.2157 22.9944 23.5901 24.6156 22.0301C25.6308 21.0691 26.6698 20.1226 27.7326 19.1905C29.5917 17.5889 31.5238 16.0673 33.5288 14.6259C34.3901 14.0157 35.2562 13.4199 36.1414 12.8385C36.7315 12.4541 37.3311 12.0746 37.9307 11.7046L47.8195 25.4655L96.8112 93.5832L113.448 116.723Z" fill="url(#paint1_linear)"/>
<path d="M113.562 56.0768V107.455V116.737C107.376 116.665 103.093 116.617 96.8301 116.44V116.406L113.486 116.723L96.8301 93.5879L96.9157 35.9832L113.562 56.0768Z" fill="url(#paint2_linear)"/>
<path d="M224.099 89.0263C224.099 90.0194 223.515 90.6153 222.542 90.6153H219.039C218.066 90.6153 217.677 90.218 217.288 89.2249L210.477 74.1298C210.088 73.1367 209.309 71.5477 209.115 70.356H208.725C208.92 71.5477 208.92 72.938 208.92 74.1298V90.6153H204.639V67.5753C204.639 66.5822 205.222 65.9863 206.196 65.9863H209.504C210.477 65.9863 210.866 66.3836 211.255 67.3767L217.872 82.0746C218.261 83.0677 219.039 84.6567 219.623 86.047H220.012C219.818 84.6567 219.818 83.2663 219.818 82.0746V66.1849H224.099V89.0263V89.0263Z" fill="black"/>
<path fill-rule="evenodd" clip-rule="evenodd" d="M231.495 90.6153L233.441 83.6636H242.393L244.339 90.6153H248.815L241.615 67.1781C241.42 66.3836 240.836 65.9863 240.058 65.9863H235.777C234.998 65.9863 234.414 66.3836 234.22 67.1781L227.02 90.6153H231.495ZM238.307 69.1644C238.502 69.9589 238.696 70.7534 238.891 71.3492L241.226 79.8899H234.415L236.75 71.3492L237.334 69.1644H238.307L238.307 69.1644Z" fill="black"/>
<path d="M262.437 89.4236C262.242 90.218 261.658 90.6153 260.88 90.6153H256.793C256.015 90.6153 255.431 90.0194 255.236 89.4236L248.23 65.9863H252.706L257.571 84.458C257.766 85.2525 257.961 86.2456 258.155 87.2387H259.128C259.323 86.2456 259.517 85.4511 259.712 84.458L264.577 65.9863H269.053L262.437 89.4236Z" fill="black"/>
<path d="M272.361 90.6153V65.9863H276.837V90.6153H272.361Z" fill="black"/>
<path d="M291.821 90.6153H287.539V82.2732L279.561 65.9863H284.231L288.707 75.5201C289.096 76.5132 289.485 77.5063 289.68 78.4994H289.875C290.069 77.5063 290.458 76.5132 290.848 75.5201L295.323 65.9863H299.799L291.821 82.2732V90.6153V90.6153Z" fill="black"/>
<path fill-rule="evenodd" clip-rule="evenodd" d="M302.72 90.6153L304.666 83.6636H313.618L315.564 90.6153H320.04L312.839 67.1781C312.645 66.3836 312.061 65.9863 311.283 65.9863H307.001C306.223 65.9863 305.639 66.3836 305.444 67.1781L298.244 90.6153H302.72ZM309.532 69.1644C309.726 69.9589 309.921 70.7534 310.115 71.3492L312.451 79.8899H305.64L307.975 71.3492L308.559 69.1644H309.532Z" fill="black"/>
<path d="M338.914 69.7601V90.6153H334.438V69.7601H327.043V65.9863H346.309V69.7601H338.914Z" fill="black"/>
<path d="M365.381 90.4167C362.267 90.6153 358.57 90.6153 355.262 90.6153C352.148 90.6153 350.396 88.8277 350.396 85.8484V70.356C350.396 67.3767 352.343 65.5891 355.262 65.5891C358.57 65.5891 362.267 65.5891 365.381 65.7877L365.186 69.1643H356.235C355.067 69.1643 354.483 69.7601 354.483 71.1505V75.5201H363.824V78.8967H354.483V84.4581C354.483 86.047 354.872 86.4443 356.235 86.4443H365.186L365.381 90.4167Z" fill="black"/>
<path d="M385.816 90.0194C383.675 90.6153 381.729 91.0125 378.421 91.0125C371.221 91.0125 368.496 87.636 368.496 78.3008C368.496 68.9657 371.026 65.5891 378.421 65.5891C381.729 65.5891 383.286 65.7877 385.427 66.3836L385.037 69.7601C382.897 69.5615 381.34 69.5615 378.615 69.5615C374.529 69.5615 373.361 71.5477 373.361 78.3008C373.361 85.0539 374.529 87.0401 378.615 87.0401C381.729 87.0401 383.675 87.0401 385.621 86.6429L385.816 90.0194Z" fill="black"/>
<path d="M407.999 90.6153H403.523V79.2939H393.988V90.6153H389.512V65.9863H393.988V75.7187H403.523V65.9863H407.999V90.6153Z" fill="black"/>
<defs>
<linearGradient id="paint0_linear" x1="53.1803" y1="-36.8515" x2="-34.3618" y2="116.176" gradientUnits="userSpaceOnUse">
<stop stop-color="#69FF97"/>
<stop offset="0.700683" stop-color="#00E4FF"/>
<stop offset="1" stop-color="#007987"/>
</linearGradient>
<linearGradient id="paint1_linear" x1="0" y1="11.7046" x2="0" y2="156.002" gradientUnits="userSpaceOnUse">
<stop stop-color="#69FF97"/>
<stop offset="0.700683" stop-color="#00E4FF"/>
<stop offset="1" stop-color="#007987"/>
</linearGradient>
<linearGradient id="paint2_linear" x1="99.1275" y1="14.1537" x2="67.0934" y2="24.4788" gradientUnits="userSpaceOnUse">
<stop stop-color="#69FF97"/>
<stop offset="0.692024" stop-color="#00E4FF"/>
<stop offset="1" stop-color="#007987"/>
</linearGradient>
</defs>
</svg>
