<svg width="100" height="125" viewBox="0 0 100 125" fill="none" xmlns="http://www.w3.org/2000/svg">
<path d="M72.7832 23.7287C72.7832 23.2819 72.4203 22.9207 71.9732 22.9207C68.6336 22.9207 65.916 25.5807 65.916 28.8498C65.916 29.2967 66.2789 29.6578 66.726 29.6578C67.1731 29.6578 67.536 29.2967 67.536 28.8498C67.536 26.4719 69.5262 24.5367 71.9732 24.5367C72.4203 24.5367 72.7832 24.1756 72.7832 23.7287Z" fill="#00E4FF"/>
<mask id="path-2-inside-1" fill="white">
<path d="M27.7479 82.7442C33.5718 82.7442 38.3103 77.9213 38.3103 71.9938C38.3103 66.3443 34.0036 61.7096 28.5579 61.2862V46.1879C28.5579 40.5028 33.0875 35.877 38.6546 35.877C44.2217 35.877 48.7512 40.5028 48.7512 46.1879C48.7512 46.2041 48.7593 46.217 48.7602 46.2331C48.8574 52.7246 54.0681 57.9774 60.4679 57.9774C66.9285 57.9774 72.1845 52.6269 72.1845 46.0497V39.5575C77.6302 39.1341 81.9369 34.4994 81.9369 28.8498C81.9369 22.9223 77.1984 18.0994 71.3745 18.0994C65.5506 18.0994 60.8121 22.9223 60.8121 28.8498C60.8121 34.4994 65.1189 39.1341 70.5645 39.5575V46.0497C70.5645 51.7356 66.035 56.3614 60.4679 56.3614C54.9 56.3614 50.3712 51.7356 50.3712 46.0497C50.3712 46.0336 50.3631 46.0206 50.3623 46.0045C50.2651 39.513 45.0552 34.261 38.6546 34.261C32.194 34.261 26.9379 39.6116 26.9379 46.1879V61.2862C21.4923 61.7096 17.1855 66.3443 17.1855 71.9938C17.1855 77.9221 21.924 82.7442 27.7479 82.7442ZM62.4321 28.8498C62.4321 23.8136 66.4433 19.7154 71.3745 19.7154C76.3058 19.7154 80.3169 23.8128 80.3169 28.8498C80.3169 33.8853 76.3058 37.9835 71.3745 37.9835C66.4433 37.9835 62.4321 33.8861 62.4321 28.8498ZM27.7479 62.861C32.6784 62.861 36.6903 66.9583 36.6903 71.9946C36.6903 77.0309 32.6792 81.129 27.7479 81.129C22.8167 81.129 18.8055 77.0317 18.8055 71.9946C18.8055 66.9583 22.8175 62.861 27.7479 62.861Z"/>
</mask>
<path d="M27.7479 82.7442C33.5718 82.7442 38.3103 77.9213 38.3103 71.9938C38.3103 66.3443 34.0036 61.7096 28.5579 61.2862V46.1879C28.5579 40.5028 33.0875 35.877 38.6546 35.877C44.2217 35.877 48.7512 40.5028 48.7512 46.1879C48.7512 46.2041 48.7593 46.217 48.7602 46.2331C48.8574 52.7246 54.0681 57.9774 60.4679 57.9774C66.9285 57.9774 72.1845 52.6269 72.1845 46.0497V39.5575C77.6302 39.1341 81.9369 34.4994 81.9369 28.8498C81.9369 22.9223 77.1984 18.0994 71.3745 18.0994C65.5506 18.0994 60.8121 22.9223 60.8121 28.8498C60.8121 34.4994 65.1189 39.1341 70.5645 39.5575V46.0497C70.5645 51.7356 66.035 56.3614 60.4679 56.3614C54.9 56.3614 50.3712 51.7356 50.3712 46.0497C50.3712 46.0336 50.3631 46.0206 50.3623 46.0045C50.2651 39.513 45.0552 34.261 38.6546 34.261C32.194 34.261 26.9379 39.6116 26.9379 46.1879V61.2862C21.4923 61.7096 17.1855 66.3443 17.1855 71.9938C17.1855 77.9221 21.924 82.7442 27.7479 82.7442ZM62.4321 28.8498C62.4321 23.8136 66.4433 19.7154 71.3745 19.7154C76.3058 19.7154 80.3169 23.8128 80.3169 28.8498C80.3169 33.8853 76.3058 37.9835 71.3745 37.9835C66.4433 37.9835 62.4321 33.8861 62.4321 28.8498ZM27.7479 62.861C32.6784 62.861 36.6903 66.9583 36.6903 71.9946C36.6903 77.0309 32.6792 81.129 27.7479 81.129C22.8167 81.129 18.8055 77.0317 18.8055 71.9946C18.8055 66.9583 22.8175 62.861 27.7479 62.861Z" fill="#00E4FF"/>
<path d="M28.5579 61.2862H20.5579V68.6883L27.9378 69.2621L28.5579 61.2862ZM48.7602 46.2331L56.7593 46.1134L56.7572 45.9729L56.7501 45.8327L48.7602 46.2331ZM72.1845 39.5575L71.5644 31.5815L64.1845 32.1553V39.5575H72.1845ZM70.5645 39.5575H78.5645V32.1553L71.1847 31.5815L70.5645 39.5575ZM50.3623 46.0045L42.3632 46.1243L42.3653 46.2647L42.3724 46.405L50.3623 46.0045ZM26.9379 61.2862L27.5581 69.2621L34.9379 68.6883V61.2862H26.9379ZM17.1855 71.9938H25.1855H17.1855ZM27.7479 90.7442C38.1227 90.7442 46.3103 82.2058 46.3103 71.9938H30.3103C30.3103 73.6367 29.021 74.7442 27.7479 74.7442V90.7442ZM46.3103 71.9938C46.3103 62.2367 38.8585 54.0629 29.1781 53.3103L27.9378 69.2621C29.1486 69.3563 30.3103 70.4518 30.3103 71.9938H46.3103ZM36.5579 61.2862V46.1879H20.5579V61.2862H36.5579ZM36.5579 46.1879C36.5579 44.7618 37.6634 43.877 38.6546 43.877V27.877C28.5116 27.877 20.5579 36.2438 20.5579 46.1879H36.5579ZM38.6546 43.877C39.6458 43.877 40.7512 44.7618 40.7512 46.1879H56.7512C56.7512 36.2438 48.7976 27.877 38.6546 27.877V43.877ZM40.7512 46.1879C40.7512 46.8671 40.8374 47.428 40.9179 47.8177C40.9574 48.0091 40.9969 48.1651 41.0246 48.2686C41.0508 48.367 41.0737 48.4449 41.0768 48.4552C41.0826 48.4753 41.0757 48.4516 41.0752 48.4497C41.0718 48.4382 41.0643 48.4122 41.0549 48.3788C41.0365 48.3134 41.0037 48.1935 40.9682 48.0416C40.8962 47.7334 40.8008 47.2436 40.7702 46.6336L56.7501 45.8327C56.7191 45.2146 56.6224 44.7171 56.5486 44.4014C56.5123 44.2458 56.4785 44.1223 56.4591 44.0532C56.4492 44.018 56.4411 43.9901 56.4372 43.9768C56.4362 43.9731 56.4287 43.9476 56.434 43.9658C56.436 43.9725 56.4578 44.0467 56.4831 44.1415C56.5098 44.2414 56.5484 44.3937 56.5872 44.5813C56.6661 44.9635 56.7512 45.5168 56.7512 46.1879H40.7512ZM40.7611 46.3529C40.9215 57.068 49.5504 65.9774 60.4679 65.9774V49.9774C58.5857 49.9774 56.7932 48.3813 56.7593 46.1134L40.7611 46.3529ZM60.4679 65.9774C71.4807 65.9774 80.1845 56.91 80.1845 46.0497H64.1845C64.1845 48.3437 62.3762 49.9774 60.4679 49.9774V65.9774ZM80.1845 46.0497V39.5575H64.1845V46.0497H80.1845ZM72.8047 47.5334C82.4851 46.7807 89.9369 38.6069 89.9369 28.8498H73.9369C73.9369 30.3918 72.7752 31.4874 71.5644 31.5815L72.8047 47.5334ZM89.9369 28.8498C89.9369 18.6378 81.7493 10.0994 71.3745 10.0994V26.0994C72.6476 26.0994 73.9369 27.2069 73.9369 28.8498H89.9369ZM71.3745 10.0994C60.9998 10.0994 52.8121 18.6378 52.8121 28.8498H68.8121C68.8121 27.2069 70.1015 26.0994 71.3745 26.0994V10.0994ZM52.8121 28.8498C52.8121 38.6069 60.264 46.7807 69.9444 47.5334L71.1847 31.5815C69.9739 31.4874 68.8121 30.3918 68.8121 28.8498H52.8121ZM62.5645 39.5575V46.0497H78.5645V39.5575H62.5645ZM62.5645 46.0497C62.5645 47.477 61.4587 48.3614 60.4679 48.3614V64.3614C70.6113 64.3614 78.5645 55.9942 78.5645 46.0497H62.5645ZM60.4679 48.3614C59.4767 48.3614 58.3712 47.4774 58.3712 46.0497H42.3712C42.3712 55.9938 50.3233 64.3614 60.4679 64.3614V48.3614ZM58.3712 46.0497C58.3712 45.3703 58.285 44.8091 58.2045 44.4193C58.1649 44.2279 58.1254 44.0719 58.0977 43.9683C58.0714 43.8699 58.0485 43.792 58.0455 43.7817C58.0396 43.7616 58.0466 43.7853 58.0471 43.7871C58.0505 43.7987 58.058 43.8247 58.0674 43.8581C58.0858 43.9236 58.1186 44.0435 58.1541 44.1954C58.2262 44.5037 58.3217 44.9937 58.3523 45.604L42.3724 46.405C42.4034 47.0233 42.5002 47.521 42.574 47.8368C42.6104 47.9924 42.6442 48.116 42.6636 48.1852C42.6735 48.2204 42.6816 48.2482 42.6855 48.2616C42.6866 48.2653 42.694 48.2908 42.6887 48.2725C42.6867 48.2658 42.6649 48.1916 42.6396 48.0969C42.6129 47.9969 42.5742 47.8446 42.5355 47.6569C42.4565 47.2746 42.3712 46.7211 42.3712 46.0497H58.3712ZM58.3614 45.8847C58.201 35.1693 49.5725 26.261 38.6546 26.261V42.261C40.5379 42.261 42.3293 43.8567 42.3632 46.1243L58.3614 45.8847ZM38.6546 26.261C27.6421 26.261 18.9379 35.3281 18.9379 46.1879H34.9379C34.9379 43.8951 36.7459 42.261 38.6546 42.261V26.261ZM18.9379 46.1879V61.2862H34.9379V46.1879H18.9379ZM26.3178 53.3103C16.6374 54.0629 9.18555 62.2367 9.18555 71.9938H25.1855C25.1855 70.4518 26.3473 69.3563 27.5581 69.2621L26.3178 53.3103ZM9.18555 71.9938C9.18555 82.207 17.3736 90.7442 27.7479 90.7442V74.7442C26.4745 74.7442 25.1855 73.6371 25.1855 71.9938H9.18555ZM70.4321 28.8498C70.4321 28.0702 71.0215 27.7154 71.3745 27.7154V11.7154C61.8651 11.7154 54.4321 19.5569 54.4321 28.8498H70.4321ZM71.3745 27.7154C71.7281 27.7154 72.3169 28.0699 72.3169 28.8498H88.3169C88.3169 19.5556 80.8835 11.7154 71.3745 11.7154V27.7154ZM72.3169 28.8498C72.3169 29.6282 71.7281 29.9835 71.3745 29.9835V45.9835C80.8835 45.9835 88.3169 38.1424 88.3169 28.8498H72.3169ZM71.3745 29.9835C71.0205 29.9835 70.4321 29.6285 70.4321 28.8498H54.4321C54.4321 38.1437 61.866 45.9835 71.3745 45.9835V29.9835ZM27.7479 70.861C28.1016 70.861 28.6903 71.2164 28.6903 71.9946H44.6903C44.6903 62.7003 37.2552 54.861 27.7479 54.861V70.861ZM28.6903 71.9946C28.6903 72.7742 28.101 73.129 27.7479 73.129V89.129C37.2574 89.129 44.6903 81.2875 44.6903 71.9946H28.6903ZM27.7479 73.129C27.3944 73.129 26.8055 72.7746 26.8055 71.9946H10.8055C10.8055 81.2888 18.2389 89.129 27.7479 89.129V73.129ZM26.8055 71.9946C26.8055 71.2164 27.3943 70.861 27.7479 70.861V54.861C18.2407 54.861 10.8055 62.7003 10.8055 71.9946H26.8055Z" fill="#00E4FF" mask="url(#path-2-inside-1)"/>
<path d="M23.0991 72.8026C23.5462 72.8026 23.9091 72.4414 23.9091 71.9946C23.9091 69.6167 25.8992 67.6815 28.3462 67.6815C28.7934 67.6815 29.1562 67.3203 29.1562 66.8735C29.1562 66.4267 28.7934 66.0655 28.3462 66.0655C25.0066 66.0655 22.2891 68.7254 22.2891 71.9946C22.2891 72.4406 22.6519 72.8026 23.0991 72.8026Z" fill="#00E4FF"/>
</svg>
