<svg width="60" height="59" viewBox="0 0 60 59" fill="none" xmlns="http://www.w3.org/2000/svg">
<path fill-rule="evenodd" clip-rule="evenodd" d="M42.1116 41.5408L48.5715 37.2435C52.2868 34.8193 57.2059 35.7351 59.7785 39.3229C60.1557 39.8491 60.0395 40.5831 59.5185 40.9652L35.2186 58.7739C34.9636 58.9609 34.6454 59.0359 34.336 58.9839L13.3383 55.4639H1.17188C0.524598 55.4639 0 54.9362 0 54.2852V40.141C0 39.49 0.524598 38.9623 1.17188 38.9623H13.2468L14.4924 37.8822C18.8997 34.0389 25.5501 34.0389 29.9598 37.8845C30.0996 37.9856 30.2394 38.115 30.3886 38.253C30.8538 38.6837 31.4096 39.1981 32.3397 39.1981H38.0443C39.7573 39.1981 41.2945 40.1346 42.1116 41.5408ZM13.6281 53.1226L34.2362 56.5772L57.102 39.8192C55.1574 38.0074 52.1764 37.7012 49.8556 39.2156L42.7305 43.9548C42.6732 46.4762 40.5927 48.5099 38.0443 48.5099H23.9818C23.335 48.5099 22.8099 47.9818 22.8099 47.3312C22.8099 46.6801 23.335 46.1525 23.9818 46.1525H38.0443C39.3366 46.1525 40.3881 45.1188 40.3881 43.848C40.3881 42.5685 39.3165 41.5555 38.0443 41.5555H32.3397C30.5055 41.5555 29.4017 40.5411 28.7855 39.9748C28.6385 39.8397 28.5192 39.7301 28.4244 39.6659C24.89 36.5833 19.5594 36.5833 16.0254 39.6654C15.5513 40.0458 15.2122 40.3558 14.9448 40.6003C14.4057 41.0931 14.1577 41.3198 13.6826 41.3198H2.34375V53.1064H13.4354C13.4999 53.1064 13.5645 53.112 13.6281 53.1226Z" fill="#00E4FF"/>
<path fill-rule="evenodd" clip-rule="evenodd" d="M47.0035 3.10017C49.2072 3.10017 51 4.9023 51 7.11735C51 9.03704 49.6532 10.6453 47.8597 11.0405C47.4345 14.5684 46.5338 19.0194 44.6285 22.0475V25.7564C44.6285 26.4431 44.0748 27 43.3916 27H16.6084C15.9252 27 15.3715 26.4431 15.3715 25.7564V22.0475C13.4662 19.0194 12.5655 14.5681 12.1403 11.0405C10.3468 10.6456 9 9.03704 9 7.11735C9 4.9023 10.7928 3.10017 12.9965 3.10017C15.2001 3.10017 16.9929 4.9023 16.9929 7.11735C16.9929 8.1822 16.5776 9.15106 15.9022 9.87062C17.1035 11.2215 18.8479 12.0741 20.7878 12.0741C23.9281 12.0741 26.5582 9.8426 27.1946 6.87481C26.4602 6.14591 26.0035 5.13421 26.0035 4.01718C26.0035 1.80213 27.7964 0 30 0C32.2036 0 33.9965 1.80213 33.9965 4.01718C33.9965 5.13421 33.5402 6.14591 32.8054 6.87481C33.4418 9.8426 36.0719 12.0741 39.2122 12.0741C41.1521 12.0741 42.8965 11.2215 44.0978 9.87062C43.4224 9.15106 43.0074 8.1822 43.0074 7.11735C43.0074 4.9023 44.7999 3.10017 47.0035 3.10017ZM47.0035 5.58675C46.164 5.58675 45.4812 6.27346 45.4812 7.11735C45.4812 7.96124 46.164 8.64763 47.0035 8.64763C47.8431 8.64763 48.5262 7.96124 48.5262 7.11735C48.5262 6.27346 47.8431 5.58675 47.0035 5.58675ZM28.4773 4.01718C28.4773 3.17329 29.1605 2.48658 30 2.48658C30.8395 2.48658 31.5224 3.17329 31.5224 4.01718C31.5224 4.86107 30.8395 5.54746 30 5.54746C29.1605 5.54746 28.4773 4.86107 28.4773 4.01718ZM12.9965 5.58675C12.1569 5.58675 11.4738 6.27346 11.4738 7.11735C11.4738 7.96124 12.1569 8.64763 12.9965 8.64763C13.836 8.64763 14.5188 7.96124 14.5188 7.11735C14.5188 6.27346 13.836 5.58675 12.9965 5.58675ZM17.8453 24.5131V22.921H42.1547V24.5131H17.8453ZM17.2884 20.4341H42.712C44.0158 18.2116 44.7634 15.0934 45.1918 12.2793C43.5983 13.6984 41.5033 14.5607 39.2122 14.5607C35.1004 14.5607 31.6224 11.7832 30.5358 7.99699C30.3605 8.02083 30.1817 8.03403 30 8.03403C29.8183 8.03403 29.6395 8.02083 29.4642 7.99699C28.3776 11.7832 24.8996 14.5607 20.7878 14.5607C18.4974 14.5607 16.4036 13.6991 14.8101 12.2812C15.2389 15.0957 15.9864 18.2142 17.2884 20.4341Z" fill="#00E4FF"/>
</svg>
